<svg width="104" height="35" viewBox="0 0 104 35" fill="none" xmlns="http://www.w3.org/2000/svg">
<path fill-rule="evenodd" clip-rule="evenodd" d="M21.875 2.91669C22.387 2.9167 22.89 3.05147 23.3333 3.30746C23.7767 3.56346 24.1449 3.93164 24.4009 4.37502H26.25C27.0236 4.37502 27.7655 4.68231 28.3124 5.22929C28.8594 5.77627 29.1667 6.51814 29.1667 7.29169V24.7917C29.1667 26.7256 28.3985 28.5802 27.031 29.9477C25.6636 31.3151 23.8089 32.0834 21.875 32.0834H8.75004C7.97649 32.0834 7.23463 31.7761 6.68765 31.2291C6.14066 30.6821 5.83337 29.9402 5.83337 29.1667V7.29169C5.83337 6.51814 6.14066 5.77627 6.68765 5.22929C7.23463 4.68231 7.97649 4.37502 8.75004 4.37502H10.5992C10.8552 3.93164 11.2234 3.56346 11.6667 3.30746C12.1101 3.05147 12.6131 2.9167 13.125 2.91669H21.875ZM21.6184 13.6777L15.4321 19.8654L13.3686 17.8019C13.0935 17.5362 12.7252 17.3893 12.3428 17.3926C11.9604 17.3959 11.5947 17.5493 11.3243 17.8197C11.0539 18.09 10.9005 18.4558 10.8972 18.8382C10.8939 19.2206 11.0409 19.5889 11.3065 19.864L14.2961 22.855C14.4451 23.0041 14.6219 23.1223 14.8166 23.203C15.0113 23.2836 15.2199 23.3251 15.4307 23.3251C15.6414 23.3251 15.8501 23.2836 16.0447 23.203C16.2394 23.1223 16.4163 23.0041 16.5652 22.855L23.6819 15.7398C23.8173 15.6043 23.9247 15.4435 23.9979 15.2665C24.0712 15.0895 24.1088 14.8998 24.1088 14.7083C24.1087 14.5167 24.0709 14.327 23.9975 14.1501C23.9242 13.9732 23.8167 13.8124 23.6812 13.677C23.5457 13.5416 23.3849 13.4342 23.2079 13.361C23.0309 13.2877 22.8412 13.2501 22.6496 13.2501C22.4581 13.2502 22.2684 13.288 22.0915 13.3614C21.9145 13.4347 21.7538 13.5422 21.6184 13.6777ZM21.1459 5.83335H13.8542C13.6835 5.8333 13.5183 5.8931 13.3872 6.00236C13.2561 6.11161 13.1674 6.2634 13.1367 6.43127L13.125 6.56252V8.02085C13.125 8.19152 13.1848 8.35679 13.294 8.4879C13.4033 8.619 13.5551 8.70763 13.723 8.73835L13.8542 8.75002H21.1459C21.3165 8.75008 21.4818 8.69027 21.6129 8.58101C21.744 8.47176 21.8327 8.31998 21.8634 8.1521L21.875 8.02085V6.56252C21.8751 6.39186 21.8153 6.22658 21.706 6.09548C21.5968 5.96437 21.445 5.87574 21.2771 5.84502L21.1459 5.83335Z" fill="#232323"/>
<path d="M46.3761 28V9.81818H58.7873V13.3871H50.7706V17.1158H57.9972V20.6935H50.7706V28H46.3761ZM65.3414 9.81818V28H61.0001V9.81818H65.3414ZM74.47 28.2575C73.0377 28.2575 71.8066 27.9645 70.7768 27.3786C69.7529 26.7867 68.9628 25.964 68.4064 24.9105C67.856 23.8511 67.5808 22.623 67.5808 21.2262C67.5808 19.8235 67.856 18.5954 68.4064 17.5419C68.9628 16.4825 69.7529 15.6598 70.7768 15.0739C71.8066 14.482 73.0377 14.1861 74.47 14.1861C75.9023 14.1861 77.1304 14.482 78.1543 15.0739C79.1841 15.6598 79.9743 16.4825 80.5247 17.5419C81.081 18.5954 81.3592 19.8235 81.3592 21.2262C81.3592 22.623 81.081 23.8511 80.5247 24.9105C79.9743 25.964 79.1841 26.7867 78.1543 27.3786C77.1304 27.9645 75.9023 28.2575 74.47 28.2575ZM74.4966 24.9815C75.0175 24.9815 75.4584 24.8217 75.8194 24.5021C76.1805 24.1825 76.4557 23.7386 76.6451 23.1705C76.8404 22.6023 76.938 21.9453 76.938 21.1996C76.938 20.442 76.8404 19.7791 76.6451 19.2109C76.4557 18.6428 76.1805 18.1989 75.8194 17.8793C75.4584 17.5597 75.0175 17.3999 74.4966 17.3999C73.958 17.3999 73.5023 17.5597 73.1294 17.8793C72.7625 18.1989 72.4814 18.6428 72.286 19.2109C72.0967 19.7791 72.002 20.442 72.002 21.1996C72.002 21.9453 72.0967 22.6023 72.286 23.1705C72.4814 23.7386 72.7625 24.1825 73.1294 24.5021C73.5023 24.8217 73.958 24.9815 74.4966 24.9815ZM85.8381 28L82.2869 14.3636H86.646L88.4837 23.0994H88.5991L90.57 14.3636H94.8224L96.8466 23.0373H96.962L98.7464 14.3636H103.105L99.5455 28H94.9023L92.7717 20.0543H92.6207L90.4901 28H85.8381Z" fill="#343C6A"/>
</svg>
